<svg width="1000" height="1000" viewBox="0 0 1000 1000" fill="none" xmlns="http://www.w3.org/2000/svg">
<g clip-path="url(#clip0_4_131)">
<mask id="mask0_4_131" style="mask-type:alpha" maskUnits="userSpaceOnUse" x="0" y="-126" width="1000" height="1000">
<circle cx="500" cy="374" r="500" fill="#008000"/>
</mask>
<g mask="url(#mask0_4_131)">
<path d="M614.019 654.036C703.476 654.036 684.985 766.691 685.843 891.972H614.019V654.036Z" fill="#FDD2B2"/>
<path d="M636.432 726.171L614.019 763.772L625.235 891.972H656.539C657.298 714.199 636.432 726.171 636.432 726.171Z" fill="#F3AB98"/>
<path d="M242.674 398.905C242.674 253.629 360.39 135.856 505.596 135.856C650.803 135.856 768.519 253.629 768.519 398.905C768.556 438.049 759.844 476.705 743.02 512.045C726.196 547.384 701.686 578.513 671.285 603.152C665.89 607.543 660.324 611.715 654.587 615.666C595.291 653.326 520.381 653.326 452.756 647.3C446.191 646.315 439.646 645.072 433.151 643.642C407.199 637.923 382.075 629.097 358.862 616.228C353.126 612.691 347.563 608.871 342.175 604.769C336.76 600.643 331.561 596.239 326.602 591.575C321.91 587.216 317.38 582.687 313.01 577.986C267.726 529.368 242.586 465.36 242.674 398.905Z" fill="#FDD2B2"/>
<path d="M278.512 531.52C279.202 532.703 279.882 533.886 280.591 535.05C281.015 535.76 281.459 536.45 281.903 537.161C282.553 538.216 283.204 539.271 283.874 540.306C284.347 541.056 284.859 541.785 285.313 542.515C285.963 543.501 286.614 544.487 287.285 545.474C287.787 546.222 288.27 546.972 288.822 547.722C289.472 548.708 290.123 549.615 290.793 550.562C291.325 551.321 291.877 552.071 292.42 552.83C292.962 553.589 293.74 554.654 294.391 555.561C295.041 556.469 295.524 557.07 296.096 557.819C296.668 558.569 297.447 559.595 298.137 560.482C298.827 561.369 299.309 561.971 299.9 562.711C300.492 563.45 301.291 564.446 301.99 565.304C302.69 566.162 303.203 566.774 303.814 567.503C304.425 568.233 305.233 569.2 305.952 570.038C306.672 570.876 307.205 571.487 307.835 572.208L310.024 574.672C310.664 575.392 311.315 576.093 311.995 576.803C312.842 577.729 313.7 578.647 314.557 579.554L315.75 580.816C317.022 582.137 318.303 583.459 319.604 584.761L319.86 585.027C321.132 586.289 322.423 587.542 323.714 588.784L325.271 590.263C326.208 591.14 327.144 592.019 328.09 592.886L329.234 593.932C330.219 594.858 331.294 595.766 332.329 596.673C335.548 599.48 338.834 602.172 342.185 604.75C347.567 608.852 353.129 612.671 358.872 616.208C382.084 629.028 407.169 637.903 433.161 643.623C439.656 645.052 446.201 646.285 452.766 647.281C494.261 650.979 538.517 652.389 580.191 644.244C513.925 624.728 195.697 510.081 395.992 159.75C393.311 160.983 390.669 162.255 388.048 163.576L387.466 163.863C386.264 164.464 385.061 165.085 383.869 165.716L382.882 166.239C379.177 168.211 375.51 170.252 371.912 172.382L371.025 172.905C369.882 173.585 368.749 174.276 367.615 174.976L366.758 175.508C363.235 177.711 359.769 179.989 356.359 182.342L355.294 183.082C354.22 183.831 353.165 184.581 352.11 185.34L351.46 185.803C349.311 187.374 347.189 188.966 345.093 190.576L344.482 191.05C343.496 191.819 342.511 192.608 341.524 193.407L340.372 194.334C339.386 195.132 338.4 195.931 337.414 196.75C335.335 198.476 333.285 200.25 331.264 202.045L330.14 203.031L327.489 205.447L326.208 206.611C323.395 209.24 320.645 211.926 317.958 214.668L316.598 216.058C315.819 216.866 315.04 217.675 314.271 218.494C313.818 218.977 313.365 219.479 312.921 219.953C311.568 221.399 310.233 222.865 308.92 224.351C308.476 224.854 308.022 225.337 307.579 225.87C306.879 226.668 306.189 227.478 305.499 228.286L304.01 230.051C303.341 230.85 302.671 231.649 302.039 232.457C301.507 233.108 300.975 233.768 300.453 234.429C299.398 235.741 298.363 237.052 297.338 238.374C296.806 239.064 296.274 239.755 295.751 240.455C295.229 241.155 294.568 242.023 293.987 242.821C293.405 243.62 292.932 244.251 292.42 244.971C291.907 245.691 291.306 246.499 290.763 247.268C289.831 248.584 288.911 249.915 288.004 251.263C287.511 251.983 287.018 252.722 286.535 253.452C286.052 254.181 285.451 255.089 284.919 255.917L283.45 258.195L281.794 260.867C281.37 261.548 280.947 262.228 280.533 262.909C279.655 264.349 278.808 265.798 277.96 267.248L276.758 269.378C276.225 270.315 275.693 271.261 275.171 272.208C274.776 272.928 274.382 273.648 273.997 274.367C273.367 275.541 272.746 276.725 272.125 277.907L270.942 280.215C270.311 281.478 269.681 282.73 269.059 284.002C268.735 284.683 268.399 285.373 268.074 286.063C267.561 287.138 267.088 288.223 266.566 289.307C266.261 289.958 265.964 290.609 265.669 291.28C264.939 292.904 264.227 294.547 263.53 296.21C263.313 296.723 263.106 297.246 262.889 297.759C262.367 299.011 261.854 300.264 261.352 301.525C261.085 302.186 260.829 302.847 260.573 303.498C260.08 304.74 259.588 305.993 259.144 307.245C258.937 307.787 258.73 308.33 258.533 308.872C257.915 310.601 257.307 312.33 256.709 314.059L256.157 315.735C255.723 317.051 255.3 318.365 254.886 319.68L254.295 321.564C253.831 323.082 253.378 324.601 252.944 326.129C252.846 326.454 252.747 326.78 252.659 327.116C252.146 328.93 251.653 330.751 251.18 332.579C251.022 333.161 250.884 333.752 250.736 334.334C250.391 335.704 250.056 337.075 249.751 338.456L249.337 340.182C248.913 342.055 248.499 343.929 248.114 345.812L247.967 346.572C247.632 348.248 247.303 349.924 246.981 351.601C246.873 352.203 246.774 352.794 246.665 353.396C246.409 354.865 246.163 356.354 245.936 357.833C245.857 358.336 245.769 358.819 245.699 359.332C245.404 361.255 245.138 363.188 244.882 365.13L244.734 366.413C244.537 367.98 244.359 369.558 244.192 371.136C244.133 371.727 244.063 372.319 244.004 372.921C243.846 374.577 243.699 376.244 243.561 377.911C243.561 378.256 243.501 378.592 243.482 378.897C243.337 380.869 243.209 382.858 243.098 384.863C243.098 385.386 243.098 385.918 243.029 386.44C242.963 387.992 242.903 389.54 242.851 391.085C242.851 391.668 242.851 392.249 242.851 392.831C242.851 394.852 242.772 396.884 242.772 398.915C242.772 398.915 242.772 398.984 242.772 399.014C242.772 401.203 242.772 403.373 242.851 405.542C242.851 406.292 242.91 407.041 242.93 407.79C242.979 409.24 243.029 410.69 243.098 412.139C243.098 413.016 243.206 413.884 243.255 414.762C243.334 416.074 243.403 417.386 243.501 418.707C243.57 419.693 243.659 420.571 243.738 421.497C243.847 422.74 243.946 423.983 244.073 425.215C244.162 426.202 244.28 427.128 244.379 428.085C244.517 429.278 244.645 430.481 244.793 431.674C244.911 432.66 245.049 433.647 245.177 434.584C245.335 435.747 245.493 436.921 245.67 438.084C245.818 439.07 245.975 440.057 246.133 441.042C246.31 442.186 246.498 443.341 246.695 444.484C246.873 445.47 247.05 446.457 247.237 447.442C247.444 448.576 247.661 449.71 247.878 450.834C248.095 451.959 248.282 452.807 248.489 453.793C248.726 454.917 248.962 456.031 249.218 457.146C249.474 458.26 249.652 459.118 249.889 460.036C250.145 461.15 250.421 462.254 250.697 463.349C250.973 464.443 251.18 465.272 251.426 466.218C251.722 467.323 252.018 468.417 252.324 469.512C252.58 470.498 252.846 471.405 253.122 472.342C253.437 473.437 253.762 474.522 254.107 475.606C254.452 476.691 254.679 477.47 254.975 478.407C255.27 479.344 255.665 480.567 256.02 481.641C256.374 482.717 256.63 483.486 256.946 484.402C257.32 485.478 257.695 486.552 258.079 487.627C258.405 488.525 258.72 489.432 259.065 490.33L260.287 493.554C260.632 494.431 260.968 495.319 261.273 496.196C261.706 497.272 262.151 498.356 262.594 499.431C262.949 500.28 263.294 501.137 263.658 501.985C264.122 503.09 264.644 504.175 265.087 505.269C265.452 506.078 265.807 506.896 266.172 507.704C266.684 508.849 267.226 509.973 267.749 511.097L268.813 513.365C269.415 514.607 270.036 515.83 270.656 517.063C270.972 517.685 271.267 518.315 271.593 518.937C273.485 522.625 275.456 526.264 277.506 529.853C277.793 530.317 278.157 530.918 278.512 531.52Z" fill="#F3AB98"/>
<path d="M242.674 398.905C242.674 253.629 360.39 135.856 505.596 135.856C650.803 135.856 768.519 253.629 768.519 398.905C768.556 438.049 759.844 476.705 743.02 512.045C726.196 547.384 701.686 578.513 671.285 603.152C665.89 607.543 660.324 611.715 654.587 615.666C595.291 653.326 520.381 653.326 452.756 647.3C446.191 646.315 439.646 645.072 433.151 643.642C407.199 637.923 382.075 629.097 358.862 616.228C353.126 612.691 347.563 608.871 342.175 604.769C336.76 600.643 331.561 596.239 326.602 591.575C321.91 587.216 317.38 582.687 313.01 577.986C267.726 529.368 242.586 465.36 242.674 398.905Z" stroke="#592D3D" stroke-width="11.8" stroke-miterlimit="10"/>
<path d="M393.351 654.036C303.883 654.036 322.384 766.691 321.526 891.972H393.351V654.036Z" fill="#FDD2B2"/>
<path d="M374.731 726.171L397.175 763.772L385.948 891.972H354.673C353.875 714.199 374.731 726.171 374.731 726.171Z" fill="#F3AB98"/>
<path d="M623.352 961H387.84C384.371 960.992 381.044 959.615 378.591 957.155C376.139 954.703 374.761 951.376 374.761 947.903V667.131C374.761 663.66 376.139 660.331 378.591 657.875C381.044 655.419 384.371 654.038 387.84 654.036H617.724C630.626 654.036 636.451 661.589 636.451 673.64V947.864C636.457 949.589 636.122 951.291 635.466 952.885C634.81 954.478 633.845 955.933 632.628 957.147C631.411 958.37 629.965 959.337 628.373 960.002C626.782 960.659 625.076 961 623.352 961Z" fill="#FDD2B2"/>
<path d="M632.795 661.826C631.812 660.618 630.981 659.293 630.321 657.882C627.954 656.027 625.138 654.832 622.16 654.421C620.692 654.193 619.209 654.081 617.724 654.086H387.84C384.379 654.088 381.06 655.462 378.608 657.907C376.158 660.352 374.774 663.669 374.761 667.131C403.345 677.407 456.856 683.146 505.596 683.146C567.751 683.146 608.479 673.926 632.795 661.826Z" fill="#F3AB98"/>
<path d="M614.019 654.036C703.476 654.036 684.985 766.691 685.843 891.972H636.432" stroke="#592D3D" stroke-width="12" stroke-miterlimit="10" stroke-linecap="square"/>
<path d="M393.351 654.036C303.883 654.036 322.384 766.691 321.526 891.972H370.878" stroke="#592D3D" stroke-width="12" stroke-miterlimit="10" stroke-linecap="square"/>
<path d="M387.84 654.134L617.724 654.036" stroke="#592D3D" stroke-width="12" stroke-miterlimit="10"/>
<path d="M387.84 961H502.787C395.204 961 403.326 733.025 374.761 733.025V947.864C374.756 949.582 375.09 951.291 375.745 952.885C376.4 954.478 377.362 955.925 378.577 957.147C379.792 958.362 381.236 959.329 382.825 959.994C384.415 960.652 386.119 960.992 387.84 961Z" fill="#F3AB98"/>
<path d="M368.847 754.749C368.66 751.13 368.739 747.511 368.897 743.901C369.055 740.293 369.36 736.654 369.744 733.054C369.941 731.24 370.138 729.435 370.385 727.621C370.631 725.806 370.868 724.001 371.223 722.187C371.922 718.432 373.111 714.785 374.761 711.34C376.411 714.785 377.6 718.432 378.3 722.187C378.654 724.001 378.911 725.806 379.138 727.621C379.364 729.435 379.581 731.24 379.778 733.054C380.153 736.674 380.448 740.293 380.616 743.901C380.784 747.511 380.863 751.14 380.675 754.749H368.847Z" fill="#592D3D"/>
<path d="M636.432 763.772V771.661C636.688 805.189 636.688 839.704 636.432 872.988C636.432 875.819 636.432 878.628 636.432 881.397V947.872C636.436 949.597 636.101 951.299 635.445 952.893C634.79 954.479 633.827 955.925 632.612 957.147C631.397 958.37 629.954 959.337 628.365 959.994C626.777 960.652 625.073 960.992 623.352 961H387.84C384.371 960.992 381.044 959.615 378.591 957.155C376.139 954.703 374.761 951.376 374.761 947.903V890.51C374.761 888.034 374.761 885.513 374.761 882.967C374.514 848.579 374.514 814.065 374.761 779.126V754.749" stroke="#592D3D" stroke-width="12" stroke-miterlimit="10"/>
<path d="M630.518 763.772C630.331 759.66 630.419 755.538 630.577 751.416C630.735 747.294 631.041 743.182 631.415 739.059C631.612 736.999 631.819 734.938 632.056 732.877C632.292 730.815 632.538 728.764 632.893 726.704C633.58 722.459 634.768 718.312 636.432 714.347C638.096 718.312 639.284 722.459 639.97 726.704C640.325 728.764 640.581 730.825 640.808 732.877C641.035 734.928 641.252 736.999 641.449 739.059C641.823 743.182 642.129 747.294 642.286 751.416C642.444 755.538 642.533 759.66 642.346 763.772H630.518Z" fill="#592D3D"/>
<path d="M575.262 736.604C575.48 727.285 587.307 723.341 593.221 729.258C594.182 730.24 594.941 731.401 595.453 732.676C595.965 733.951 596.222 735.314 596.208 736.688C596.193 738.062 595.909 739.42 595.37 740.683C594.832 741.947 594.05 743.093 593.068 744.055C592.087 745.016 590.926 745.775 589.652 746.287C588.378 746.8 587.015 747.057 585.642 747.043C584.268 747.028 582.912 746.744 581.648 746.205C580.384 745.666 579.239 744.883 578.278 743.901C577.318 742.945 576.558 741.807 576.04 740.555C575.523 739.302 575.258 737.959 575.262 736.604Z" fill="#592D3D"/>
<path d="M415.025 736.309C414.818 728.272 423.689 724.327 429.603 727.285C437.488 730.244 437.488 741.091 429.603 746.022C425.66 747.994 421.718 746.022 418.021 743.577C417.068 742.622 416.313 741.489 415.799 740.242C415.284 738.994 415.021 737.658 415.025 736.309Z" fill="#592D3D"/>
<path d="M505.596 726.072C506.302 727.931 506.798 729.863 507.075 731.831C507.368 733.738 507.529 735.662 507.558 737.59L507.854 749.119C507.942 752.954 508.061 756.8 508.1 760.646L508.267 772.154C508.494 787.508 508.485 802.882 508.544 818.245C508.602 833.61 508.721 848.973 508.544 864.339C508.455 872.021 508.248 879.703 508.021 887.385C507.922 891.222 507.735 895.066 507.361 898.903C507.026 902.779 506.442 906.624 505.616 910.43C504.789 906.624 504.207 902.779 503.872 898.903C503.497 895.066 503.309 891.222 503.211 887.385C502.985 879.703 502.777 872.021 502.689 864.339C502.492 848.973 502.689 833.61 502.689 818.245C502.689 802.882 502.689 787.528 502.866 772.164L503.034 760.627L503.359 749.108L503.685 737.59C503.721 735.662 503.886 733.738 504.177 731.831C504.436 729.865 504.912 727.934 505.596 726.072Z" fill="#F3AB98"/>
<path d="M431.89 776.592C433.351 775.897 434.899 775.399 436.493 775.112C438.014 774.827 439.557 774.662 441.105 774.619L450.321 774.294L468.753 773.89C481.034 773.703 493.305 773.653 505.596 773.624C517.888 773.594 530.169 773.466 542.45 773.624C548.59 773.712 554.731 773.919 560.882 774.146C563.947 774.254 567.022 774.442 570.088 774.807C573.201 775.152 576.282 775.739 579.304 776.562C576.283 777.39 573.201 777.974 570.088 778.308C567.022 778.682 563.947 778.869 560.882 778.968C554.731 779.195 548.59 779.392 542.45 779.481C530.169 779.669 517.888 779.481 505.596 779.481C493.305 779.481 481.024 779.481 468.733 779.334C462.592 779.274 456.452 779.077 450.321 778.84L441.105 778.505C439.56 778.463 438.021 778.299 436.502 778.012C434.908 777.745 433.357 777.268 431.89 776.592Z" fill="#F3AB98"/>
<path d="M448.833 807.536C449.996 806.981 451.24 806.611 452.519 806.442C453.7 806.275 454.896 806.225 456.087 806.294C458.443 806.392 460.799 806.452 463.155 806.501C467.866 806.61 472.577 806.649 477.289 806.668C486.78 806.668 496.105 806.747 505.636 806.461C515.167 806.176 524.62 806.037 534.102 806.077C538.842 806.077 543.584 806.205 548.315 806.313C550.697 806.346 553.075 806.5 555.441 806.777C557.873 807.045 560.273 807.551 562.607 808.286C560.327 809.181 557.962 809.843 555.55 810.258C553.199 810.681 550.826 810.964 548.443 811.106C543.692 811.451 538.941 811.747 534.2 811.915C524.699 812.269 515.207 812.23 505.735 812.358C500.993 812.358 496.262 812.576 491.462 812.457C486.662 812.339 481.911 812.329 477.15 812.151C472.39 811.974 467.61 811.579 462.858 811.086C460.473 810.82 458.108 810.524 455.733 810.199C454.533 810.052 453.353 809.774 452.214 809.371C450.991 808.956 449.847 808.336 448.833 807.536Z" fill="#F3AB98"/>
<path d="M445.403 842.534C446.572 841.845 447.843 841.346 449.168 841.055C450.403 840.768 451.665 840.605 452.933 840.571L460.454 840.256C465.471 840.079 470.497 839.931 475.514 839.852C485.549 839.704 495.582 839.704 505.596 839.704C515.61 839.704 525.664 839.536 535.698 839.704C540.715 839.792 545.732 840 550.749 840.226C553.266 840.311 555.776 840.529 558.269 840.878C560.838 841.23 563.366 841.828 565.82 842.662C563.374 843.482 560.856 844.066 558.299 844.408C555.803 844.765 553.289 844.985 550.769 845.068C545.752 845.295 540.735 845.502 535.718 845.591C525.684 845.788 515.641 845.65 505.606 845.591C495.573 845.532 485.538 845.532 475.504 845.344C470.487 845.246 465.461 845.068 460.444 844.861L452.923 844.497C451.655 844.458 450.393 844.293 449.158 844.003C447.836 843.718 446.568 843.222 445.403 842.534Z" fill="#F3AB98"/>
<path d="M552.76 742.058L511.234 708.164L584.794 654.134H426.399L499.958 708.164L458.433 742.058L421.343 686.341V763.733H593.103V681.45L552.76 742.058Z" fill="#F3AB98"/>
<path d="M620.583 653.484L578.466 653.583C578.248 658.036 577.777 662.474 577.056 666.875C576.593 668.987 576.02 671.074 575.341 673.128C573.035 679.527 558.329 684.961 554.159 689.625C552.778 691.177 551.296 692.636 549.724 693.994C524.915 711.941 485.489 712.927 461.528 693.422C458.944 691.165 456.596 688.65 454.52 685.917C450.351 680.434 438.355 674.488 436.68 667.24C436.205 665.095 435.849 662.926 435.615 660.742C435.377 658.514 435.259 656.276 435.26 654.036L390.699 653.484C387.229 653.484 383.901 654.862 381.447 657.316C378.992 659.77 377.612 663.098 377.61 666.57V947.307C377.612 950.781 378.992 954.107 381.447 956.567C383.901 959.019 387.229 960.396 390.699 960.396H626.201C629.67 960.396 632.996 959.019 635.449 956.559C637.903 954.107 639.28 950.781 639.28 947.307V673.049C639.28 661.037 633.485 653.484 620.583 653.484Z" fill="white"/>
<path d="M616.817 653.484C679.446 653.484 704.067 696.272 694.585 921.709C676.114 928.315 639.478 926.235 639.478 926.235L616.817 653.484Z" fill="white"/>
<path d="M457.359 749.375L505.114 725.619L552.997 749.375L516.468 706.951L473.208 707.77L457.359 749.375Z" fill="#E2E2E2"/>
<path d="M639.28 725.619C639.28 725.619 616.817 808.986 620.247 956.374L652.981 925.801L656.51 790.131C650.97 718.904 639.28 725.619 639.28 725.619Z" fill="#E2E2E2"/>
<path d="M396.189 653.484C335.296 653.484 308.584 709.151 316.598 895.562C338.696 905.332 371.982 901.062 371.982 901.062L396.189 653.484Z" fill="white"/>
<path d="M315.307 850.048C315.478 863.496 315.874 877.792 316.499 892.924C331.55 893.643 359.562 893.79 372.789 892.924L376.91 850.709C366.294 849.466 331.787 849.062 315.307 850.048Z" fill="#E2E2E2"/>
<path d="M377.58 725.619L377.087 900.845L363.929 901.735C361.001 754.749 377.58 725.619 377.58 725.619Z" fill="#E2E2E2"/>
<path d="M596.779 658.888L523.181 712.938L564.716 746.84L623.283 658.839L596.779 658.888Z" fill="#E2E2E2"/>
<path d="M616.817 653.484C683.27 653.484 694.142 708.983 694.585 785.408V921.709C694.585 921.709 645.303 927.163 639.478 926.235L639.379 786.098" stroke="#592D3D" stroke-width="11.8" stroke-miterlimit="10" stroke-linecap="square"/>
<path d="M396.189 653.484C370.828 653.484 353.293 661.491 341.279 675.612C322.107 698.165 317.002 736.298 316.637 782.38V904.435C328.524 907.707 377.117 900.845 377.117 900.845L377.6 783.889" stroke="#592D3D" stroke-width="11.8" stroke-miterlimit="10" stroke-linecap="square"/>
<path d="M390.699 960.396H505.596C397.973 960.396 406.134 732.462 377.57 732.462V947.307C377.572 949.032 377.912 950.734 378.573 952.328C379.234 953.922 380.202 955.36 381.421 956.575C382.641 957.789 384.088 958.756 385.68 959.414C387.272 960.064 388.978 960.404 390.699 960.396Z" fill="#E2E2E2"/>
<path d="M371.695 754.196C371.508 750.578 371.587 746.949 371.755 743.349C371.922 739.75 372.218 736.111 372.593 732.502C372.789 730.698 372.997 728.883 373.233 727.069C373.47 725.254 373.716 723.449 374.071 721.645C374.769 717.889 375.959 714.242 377.61 710.798C379.26 714.242 380.45 717.889 381.148 721.645C381.503 723.449 381.759 725.264 381.986 727.069C382.212 728.873 382.429 730.698 382.626 732.502C383.008 736.131 383.29 739.747 383.474 743.349C383.632 746.969 383.711 750.598 383.474 754.196H371.695Z" fill="#592D3D"/>
<path d="M639.28 763.18V771.069C639.537 804.598 639.537 839.112 639.28 872.4C639.28 875.231 639.28 878.047 639.28 880.817V947.292C639.28 950.758 637.902 954.092 635.449 956.544C632.996 958.996 629.67 960.373 626.201 960.373H390.699C387.229 960.373 383.901 958.996 381.447 956.544C378.992 954.092 377.612 950.765 377.61 947.292V882.403C377.353 848.026 377.353 813.513 377.61 778.564V754.196" stroke="#592D3D" stroke-width="11.8" stroke-miterlimit="10"/>
<path d="M700.184 862.622C702.372 864.85 701.751 900.482 700.184 903.05C698.617 905.626 637.102 904.945 636.343 903.05C635.584 901.162 634.471 866.072 636.343 862.622C636.609 862.127 638.59 861.74 641.715 861.454" fill="white"/>
<path d="M633.367 763.18C633.18 759.058 633.268 754.937 633.426 750.824C633.583 746.712 633.889 742.58 634.274 738.468C634.471 736.407 634.667 734.346 634.904 732.285C635.141 730.224 635.387 728.163 635.752 726.102C636.433 721.858 637.618 717.71 639.28 713.746C640.951 717.707 642.139 721.856 642.819 726.102C643.174 728.163 643.44 730.224 643.656 732.285C643.874 734.346 644.101 736.407 644.297 738.468C644.681 742.58 644.978 746.703 645.135 750.824C645.293 754.946 645.392 759.058 645.194 763.18H633.367Z" fill="#592D3D"/>
<path d="M390.699 653.583L620.583 653.484" stroke="#592D3D" stroke-width="11.8" stroke-miterlimit="10"/>
<path d="M534.565 729.8L512.535 707.77L490.516 729.8L501.338 740.628L491.758 845.779L512.2 861.725L533.313 845.779L523.742 740.628L534.565 729.8Z" fill="#E2E2E2"/>
<path d="M505.636 707.77V960.397" stroke="#592D3D" stroke-width="6" stroke-miterlimit="10" stroke-linecap="square"/>
<path d="M505.636 707.77L527.665 722.897L505.636 744.937L483.616 722.897L505.636 707.77Z" fill="#633749"/>
<path d="M426.37 654.115C426.37 654.115 469.019 692.909 499.958 708.165C484.898 733.025 458.433 742.077 458.433 742.077L399.856 654.086L426.37 654.115Z" fill="white" stroke="#592D3D" stroke-width="11.8" stroke-miterlimit="10"/>
<path d="M584.823 654.115C584.823 654.115 546.008 694.743 511.234 708.164C521.092 728.163 552.76 742.058 552.76 742.058L611.338 654.065L584.823 654.115Z" fill="white" stroke="#592D3D" stroke-width="11.8" stroke-miterlimit="10"/>
<path d="M505.567 852.81C512.35 852.81 517.848 847.309 517.848 840.523C517.848 833.736 512.35 828.235 505.567 828.235C498.784 828.235 493.286 833.736 493.286 840.523C493.286 847.309 498.784 852.81 505.567 852.81Z" fill="black" stroke="white" stroke-width="24"/>
<path d="M505.567 852.81C512.35 852.81 517.848 847.309 517.848 840.523C517.848 833.736 512.35 828.235 505.567 828.235C498.784 828.235 493.286 833.736 493.286 840.523C493.286 847.309 498.784 852.81 505.567 852.81Z" fill="#5683FF"/>
<path d="M552.653 827.469H485.981L470.423 854.903L487.976 875.074H517.349L528.993 854.903L497.537 854.936L503.063 846.292H563.585C568.398 837.899 562.335 827.469 552.653 827.469Z" fill="url(#paint0_linear_4_131)"/>
<path d="M464.382 848.001L475.335 829.178L480.049 821.07H480.104C480.312 820.106 480.411 819.098 480.411 818.079C480.411 811.604 476.168 806.093 470.215 804H470.171L455.216 829.802L454.547 830.953C450.161 838.523 455.621 848.001 464.382 848.001Z" fill="url(#paint1_linear_4_131)"/>
<path d="M470.226 804C476.179 806.104 480.422 811.615 480.422 818.079C480.422 819.109 480.313 820.106 480.115 821.07H539.398L528.993 804H470.226Z" fill="url(#paint2_linear_4_131)"/>
<path opacity="0.35" d="M471.958 804H470.226C476.179 806.104 480.422 811.615 480.422 818.079C480.422 819.109 480.313 820.106 480.115 821.07H481.837C482.045 820.106 482.144 819.098 482.144 818.079C482.154 811.615 477.9 806.104 471.958 804Z" fill="#5683FF"/>
<path d="M538.016 854.772L526.647 874.296L521.757 882.699H521.691C521.482 883.707 521.373 884.737 521.373 885.8C521.373 892.516 525.78 898.236 531.953 900.416H531.997L547.533 873.65L558.475 854.772H538.016Z" fill="url(#paint3_linear_4_131)"/>
<path d="M484.858 838.876L505.301 854.821L526.414 838.876L516.556 730.619H494.715L484.858 838.876Z" fill="#633749"/>
<path d="M483.616 722.898L494.439 733.725L484.858 838.876L505.301 854.821L526.414 838.876L516.843 733.725L527.665 722.898" stroke="#592D3D" stroke-width="8" stroke-miterlimit="10"/>
<path d="M496.617 730.431C496.568 730.372 496.617 730.431 496.617 730.431L496.686 730.48C496.746 730.513 496.803 730.553 496.854 730.599L497.228 730.885C497.475 731.092 497.741 731.299 497.997 731.526C498.519 731.97 499.072 732.443 499.673 732.896C500.274 733.35 500.924 733.784 501.644 734.297C502.583 735.004 503.476 735.771 504.315 736.595C503.612 737.742 502.516 738.594 501.23 738.991C500.044 739.321 498.804 739.412 497.583 739.257C496.342 739.136 495.133 738.803 494.005 738.271C493.431 737.997 492.887 737.666 492.379 737.285C492.115 737.092 491.861 736.885 491.62 736.664C491.501 736.555 491.374 736.437 491.255 736.309L491.058 736.101L490.812 735.816L496.617 730.431Z" fill="#592D3D"/>
<path d="M305.006 470.508V457.757C303.468 449.409 304.127 440.805 306.919 432.789C307.839 430.173 308.997 427.648 310.378 425.245C313.681 416.655 322.551 409.753 331.422 406.794C345.221 402.85 361.977 404.822 372.82 415.67C386.618 430.461 384.647 452.157 385.09 470.518" stroke="#592D3D" stroke-width="12" stroke-miterlimit="10" stroke-linecap="round"/>
<path d="M627.137 470.893C624.831 444.642 628.773 408.155 662.749 404.655C665.411 404.413 668.09 404.413 670.752 404.655C678.771 405.351 686.433 408.282 692.87 413.115C710.612 427.907 706.67 451.574 706.62 470.932" stroke="#592D3D" stroke-width="12" stroke-miterlimit="10" stroke-linecap="round"/>
<path d="M449.552 519.075C449.552 500.437 561.641 503.238 561.641 519.075C561.641 533.946 555.736 548.208 545.226 558.723C534.715 569.238 520.46 575.146 505.596 575.146C490.732 575.146 476.477 569.238 465.967 558.723C455.457 548.208 449.552 533.946 449.552 519.075Z" fill="#592D3D"/>
<path d="M500.668 539.922C483.961 538.935 469.394 546.578 464.544 557.888C472.608 566.411 483.14 572.188 494.659 574.405C506.178 576.622 518.101 575.167 528.749 570.245C530.964 569.222 533.108 568.053 535.166 566.744C534.26 552.83 519.455 541.085 500.668 539.922Z" fill="#F28195"/>
<path d="M449.552 519.075C449.552 500.437 561.641 503.238 561.641 519.075C561.641 533.946 555.736 548.208 545.226 558.723C534.715 569.238 520.46 575.146 505.596 575.146C490.732 575.146 476.477 569.238 465.967 558.723C455.457 548.208 449.552 533.946 449.552 519.075Z" stroke="#592D3D" stroke-width="6" stroke-miterlimit="10"/>
<path d="M484.031 529.528C484.474 529.419 484.651 529.37 484.937 529.32L485.676 529.183C486.16 529.094 486.662 529.044 487.116 529.005C488.062 528.908 489.013 528.875 489.964 528.906C491.891 528.948 493.807 529.217 495.671 529.705C499.576 530.695 503.116 532.782 505.872 535.72C508.466 538.511 510.204 541.989 510.88 545.74C511.496 549.199 511.028 552.764 509.539 555.946C507.499 553.056 505.932 550.463 504.295 548.293C503.559 547.254 502.752 546.265 501.881 545.335C501.085 544.518 500.19 543.803 499.22 543.205C497.379 542.102 495.327 541.4 493.197 541.144C492.079 541 490.954 540.921 489.826 540.908C489.245 540.908 488.663 540.908 488.091 540.957L487.254 541.016H486.869C486.771 541.016 486.574 541.016 486.642 541.016L484.031 529.528Z" fill="#592D3D"/>
<path d="M563.484 299.642C550.808 323.309 504.345 336.563 500.569 330.626C496.341 323.99 537.877 276.073 514.27 225.958" fill="#F3AB98"/>
<path d="M785.521 243.936C780.495 238.907 754.907 245.741 729.152 243.709C703.916 209.42 671.121 181.411 633.313 161.856C595.504 142.301 553.7 131.727 511.146 130.955C508.741 110.759 510.406 93.7979 508.573 91.4115C506.119 88.2362 493.305 103.916 489.974 121.981C478.235 107.189 458.295 99.3005 457.723 103.442C457.349 106.085 465.057 117.337 472.321 132.927C362.322 146.211 272.155 223.907 240.614 327.194C226.953 338.949 214.139 347.252 214.001 352.528C213.735 362.31 252.747 361.758 269.769 360.24V360.18C329.549 358.208 446.201 346.591 502.797 288.301C497.357 307.127 487.332 321.001 489.264 323.959C492.222 328.565 527.034 318.842 538.616 301.043C585.927 320.361 676.104 343.603 754.474 285.106L754.257 284.683C768.539 272.741 791.781 250.247 785.521 243.936Z" fill="#A56941"/>
<path d="M729.191 249.626C723.869 249.862 718.684 249.734 713.421 249.488C708.158 249.241 702.983 248.826 697.779 248.245C695.177 247.959 692.575 247.654 689.982 247.259C687.39 246.865 684.788 246.549 682.206 246.046C676.944 245.099 671.796 243.599 666.849 241.569C672.02 240.244 677.297 239.38 682.619 238.986C685.212 238.768 687.804 238.62 690.396 238.512L698.163 238.176C703.338 237.96 708.503 237.841 713.658 237.733C718.813 237.625 723.987 237.615 729.054 237.733L729.191 249.626Z" fill="#592D3D"/>
<path d="M245.976 329.877C245.976 329.877 245.976 330.113 245.976 330.261L245.857 330.784L245.582 331.878C245.375 332.618 245.158 333.377 244.931 334.137C244.468 335.665 243.946 337.233 243.413 338.821C242.881 340.408 242.368 342.055 241.668 343.751C241.277 344.638 240.822 345.494 240.308 346.316C239.718 347.29 239.035 348.204 238.268 349.047C236.606 347.591 235.344 345.734 234.602 343.653C234.264 342.725 234.013 341.768 233.853 340.793C233.645 339.807 233.547 338.821 233.429 337.884C233.231 335.917 233.231 333.934 233.429 331.967C233.525 330.972 233.683 329.984 233.901 329.009C234.02 328.516 234.148 328.022 234.306 327.52C234.381 327.262 234.47 327.009 234.572 326.761C234.67 326.484 234.749 326.287 234.926 325.873L245.976 329.877Z" fill="#592D3D"/>
<path d="M269.769 360.269V360.21C286.525 359.658 307.845 358.337 331.018 355.437C333.61 300.293 352.702 235.544 395.992 159.75L389.289 156.545C353.935 172.979 322.428 196.668 296.815 226.071C271.202 255.475 252.054 289.938 240.614 327.224C226.953 338.979 214.139 347.282 214.001 352.558C213.735 362.34 252.747 361.788 269.769 360.269Z" fill="#8D5638"/>
<path d="M785.521 243.936C780.495 238.907 754.907 245.741 729.152 243.709C703.916 209.42 671.121 181.411 633.313 161.856C595.504 142.301 553.7 131.727 511.146 130.955C508.741 110.759 510.406 93.7979 508.573 91.4115C506.119 88.2362 493.305 103.916 489.974 121.981C478.235 107.189 458.295 99.3005 457.723 103.442C457.349 106.085 465.057 117.337 472.321 132.927C362.322 146.211 272.155 223.907 240.614 327.194C226.953 338.949 214.139 347.252 214.001 352.528C213.735 362.31 252.747 361.758 269.769 360.24V360.18C329.549 358.208 446.201 346.591 502.797 288.301C497.357 307.127 487.332 321.001 489.264 323.959C492.222 328.565 527.034 318.842 538.616 301.043C585.927 320.361 676.104 343.603 754.474 285.106L754.257 284.683C768.539 272.741 791.781 250.247 785.521 243.936Z" stroke="#592D3D" stroke-width="11.8" stroke-miterlimit="10"/>
<path d="M511.442 146.763C497.402 147.572 483.421 149.198 469.571 151.634C466.141 152.295 462.721 153.025 459.28 153.656C455.841 154.287 452.48 155.243 449.079 156.032L438.967 158.715C435.615 159.701 432.294 160.766 428.963 161.791C415.673 166.079 402.688 171.261 390.098 177.303C377.447 183.447 365.185 190.363 353.382 198.011C363.895 188.419 375.501 180.097 387.959 173.221C400.427 166.255 413.554 160.544 427.148 156.17C430.579 155.184 433.989 154.109 437.419 153.163C440.849 152.216 444.318 151.368 447.817 150.599C451.317 149.83 454.816 149.218 458.325 148.627C461.833 148.035 465.372 147.571 468.901 147.128C483.021 145.39 497.293 145.267 511.442 146.763Z" fill="white"/>
<path d="M414.217 374.095H295.308C289.828 374.095 284.348 374.016 278.867 374.095H278.631C273.475 374.095 268.538 378.631 268.774 383.956C268.817 386.557 269.87 389.041 271.709 390.881C273.547 392.721 276.03 393.774 278.631 393.817H397.54C403.01 393.817 408.5 393.896 413.98 393.817H414.217C419.371 393.817 424.31 389.281 424.073 383.956C424.028 381.355 422.975 378.873 421.136 377.034C419.297 375.194 416.816 374.14 414.217 374.095Z" fill="#592D3D"/>
<path d="M728.669 374.095H609.76C604.28 374.095 598.8 374.016 593.32 374.095H593.083C587.928 374.095 582.99 378.631 583.226 383.956C583.27 386.557 584.322 389.041 586.161 390.881C588 392.721 590.482 393.774 593.083 393.817H711.992C717.472 393.817 722.952 393.896 728.432 393.817H728.669C733.824 393.817 738.762 389.281 738.526 383.956C738.481 381.355 737.427 378.873 735.588 377.034C733.75 375.194 731.269 374.14 728.669 374.095Z" fill="#592D3D"/>
</g>
</g>
<defs>
<linearGradient id="paint0_linear_4_131" x1="536.689" y1="816.282" x2="499.075" y2="881.477" gradientUnits="userSpaceOnUse">
<stop stop-color="#5683FF"/>
<stop offset="1" stop-color="#5683FF"/>
</linearGradient>
<linearGradient id="paint1_linear_4_131" x1="457.649" y1="811.233" x2="475.246" y2="841.732" gradientUnits="userSpaceOnUse">
<stop offset="0.3" stop-color="#5683FF"/>
<stop offset="1" stop-color="#5683FF"/>
</linearGradient>
<linearGradient id="paint2_linear_4_131" x1="516.146" y1="792.92" x2="494.959" y2="829.642" gradientUnits="userSpaceOnUse">
<stop offset="0.5" stop-color="#5683FF"/>
<stop offset="1" stop-color="#5683FF"/>
</linearGradient>
<linearGradient id="paint3_linear_4_131" x1="550.122" y1="889.957" x2="531.865" y2="858.314" gradientUnits="userSpaceOnUse">
<stop offset="0.3" stop-color="#5683FF"/>
<stop offset="1" stop-color="#5683FF"/>
</linearGradient>
<clipPath id="clip0_4_131">
<rect width="1000" height="1000" fill="white"/>
</clipPath>
</defs>
</svg>
